PathFileType	4	(X/Y/Z)	C:\Users\WrightLab\Desktop\Jo\P2_Trial28.trc
DataRate	CameraRate	NumFrames	NumMarkers	Units	OrigDataRate	OrigDataStartFrame	OrigNumFrames
100.00	100.00	       15	19	mm	100.00	414	       472
Frame#	Time	Headset_Front			Headset_Back			Headset_Left			Headset_Right			Left_Shoulder			Right_Shoulder			Sternum			C7			Left Elbow			Right Elbow			Left Wrist			Right Wrist			Left ASIS			Right ASIS			S2			Left Knee			Right Knee			Left Ankle			Right Ankle			
		X1	Y1	Z1	X2	Y2	Z2	X3	Y3	Z3	X4	Y4	Z4	X5	Y5	Z5	X6	Y6	Z6	X7	Y7	Z7	X8	Y8	Z8	X9	Y9	Z9	X10	Y10	Z10	X11	Y11	Z11	X12	Y12	Z12	X13	Y13	Z13	X14	Y14	Z14	X15	Y15	Z15	X16	Y16	Z16	X17	Y17	Z17	X18	Y18	Z18	X19	Y19	Z19	

414	4.130	108.49634	211.66119	2110.52710	-102.31238	1663.26392	2246.57520							-42.36836	1484.80774	2249.08716				-219.85391	1368.31006	2226.67334				44.12477	1156.58020	2385.93188				51.77262	922.99493	2459.43188	-416.05933	892.90497	2009.20129	-185.87759	1072.30933	2302.25024	-296.93597	1060.51453	2220.59863	-365.14642	1140.55603	1980.11084	-3.12560	491.99841	2276.29004	-387.36401	602.08105	2203.27148				-360.85043	187.21767	2339.29395	
415	4.140	102.47905	217.24179	2132.10986	-107.30013	1665.24219	2252.87524							-47.68165	1486.37952	2257.60596				-224.58238	1370.04565	2232.09888				35.00024	1155.31042	2391.47314				39.66286	919.84808	2461.97803	-419.88034	894.78912	2020.84802	-190.65268	1074.16016	2308.38696	-300.88858	1062.23523	2225.86377	-366.91089	1141.75610	1988.49768	-13.08278	490.60669	2296.97803	-388.87741	603.30194	2202.30176				-361.39993	188.72133	2336.00464	
416	4.150	95.94106	220.21614	2151.29077	-111.89050	1666.25427	2259.14331							-53.11327	1488.31665	2265.68872				-229.30298	1370.84814	2237.67651				25.90934	1154.28308	2396.08008				26.66195	918.36273	2464.63428	-423.54828	896.61359	2032.36243	-195.25186	1075.92285	2313.91040	-304.77460	1064.44202	2231.99146	-369.17429	1142.92517	1997.33057	-22.53135	489.97354	2316.43677	-389.88382	604.63910	2202.59863				-362.07547	188.02960	2330.10547	
417	4.160	89.49368	224.74736	2172.27759	-116.71896	1668.32031	2265.35889							-58.01301	1489.70691	2273.25098				-233.88556	1372.79346	2242.57422				15.61980	1154.20520	2401.93628				13.43562	916.96619	2466.68311	-426.53589	898.85010	2044.46423	-200.51015	1077.81604	2319.80640	-307.85696	1067.09302	2236.32642	-371.27008	1144.37073	2005.47681	-30.76166	489.47568	2338.44604	-389.75748	605.04803	2202.82227				-362.79987	186.22217	2323.84692	
418	4.170	82.87483	227.09135	2193.11743	-121.14183	1669.72351	2271.23657							-62.87717	1491.38489	2280.66211				-238.55542	1374.06628	2248.18652				6.31765	1153.71313	2406.05933				0.00418	916.14484	2468.22192	-430.05981	901.84637	2056.68359	-205.96832	1080.02307	2326.03589	-312.00812	1069.64270	2240.76489				-40.67580	487.52847	2355.89307	-389.23245	604.95575	2202.53345				-363.78510	184.97041	2318.89404	
419	4.180	73.48940	229.60455	2213.03638	-125.71260	1671.24731	2277.36328							-68.61156	1493.48767	2288.77197				-242.88652	1375.50464	2253.08179				-3.88863	1153.43372	2411.35669				-13.56111	915.41119	2470.60327	-434.05298	904.66455	2068.33447	-210.83292	1082.94055	2332.04150	-316.45468	1072.02991	2244.34814	-374.36191	1147.18274	2022.54712	-50.38831	487.65585	2376.27051	-388.26312	604.33893	2201.10425				-364.87000	182.13707	2313.24341	
420	4.190	64.20589	231.63745	2234.31812	-130.68253	1672.54163	2284.03516							-73.58051	1495.11926	2295.76855				-246.95123	1376.56519	2257.31909				-13.87215	1153.50378	2415.86328				-27.28503	915.84796	2472.48145	-437.40759	907.71320	2080.53760	-216.61194	1084.64612	2337.47803	-319.61948	1074.07678	2247.70630	-376.21289	1148.55566	2032.00940	-59.92719	488.94449	2395.55933	-386.58075	603.29358	2200.05200				-366.10309	179.21915	2307.15527	
421	4.200	55.60775	234.02979	2258.09277	-134.61102	1673.65601	2289.11890							-78.97388	1496.50305	2303.48950				-251.30746	1378.02246	2261.94556				-24.03330	1153.95605	2420.62256				-41.53017	915.22552	2473.65576	-441.31259	910.95673	2091.68506	-222.15094	1087.22205	2342.27661	-323.69162	1076.31946	2251.23193				-73.41782	491.80960	2413.11597	-384.48877	602.13873	2198.53320				-367.73688	176.49536	2302.05664	
422	4.210	45.05420	235.28568	2280.53223	-139.65434	1674.80066	2295.58374							-84.31432	1498.60449	2310.75171				-255.57681	1379.94861	2266.10522				-34.10599	1154.18323	2424.98193				-55.63369	915.28973	2474.58887	-445.73181	914.22522	2103.88965	-227.97765	1088.41943	2347.24902	-327.65347	1077.82141	2253.02856	-380.90955	1152.29028	2048.93115	-88.05322	497.36786	2433.55420	-382.33255	600.68109	2196.61914				-369.33347	174.53593	2296.89429	
423	4.220	35.23438	236.13943	2302.51172	-143.52382	1675.66614	2300.41724							-89.55258	1500.02515	2317.71094				-260.36584	1381.42212	2271.18823				-44.24174	1154.72998	2429.86768				-69.47206	915.72626	2477.06885	-449.41898	917.74518	2115.80396	-233.45743	1089.92932	2351.54370	-331.01801	1079.43213	2256.00537	-385.04800	1155.03430	2057.20044	-101.97996	500.97433	2450.22900	-379.63751	599.40063	2193.74927				-370.99609	172.10454	2290.94360	
424	4.230	23.14411	237.44861	2326.07593	-148.44443	1677.37439	2306.98901							-95.35170	1501.52893	2325.40112				-265.12378	1382.82788	2276.05786				-53.91098	1155.37720	2434.70264				-81.92445	915.16602	2477.15771	-454.09793	920.87775	2127.45264	-239.13570	1090.90356	2354.98291	-334.62305	1079.60071	2257.06128	-389.55014	1158.00989	2064.86279	-115.70220	505.48074	2466.22144	-376.77676	598.02478	2191.89355				-373.18665	170.89488	2283.73706	
425	4.240	9.98992	235.69525	2346.19482	-152.31831	1678.10144	2312.15454							-100.71958	1502.71716	2332.16162				-269.93808	1384.18298	2280.73901				-64.05177	1156.59814	2440.27197				-98.79337	917.16016	2480.80908	-458.36459	923.93445	2139.36401	-244.68394	1092.56506	2359.44385	-338.27890	1080.76416	2259.77539	-393.82196	1159.97205	2072.07544	-129.86868	509.79678	2481.25757	-373.60718	597.09015	2189.11450				-373.46747	169.92720	2277.08276	
426	4.250	-2.76664	235.22125	2368.86523	-156.78233	1678.91431	2317.56079							-106.57419	1504.21326	2339.59399				-274.79114	1385.55298	2285.78662				-73.36597	1157.00415	2445.69165				-112.41317	918.54395	2483.00854	-462.80014	927.06635	2150.84814	-250.46077	1092.71094	2362.88208	-341.80841	1081.13855	2261.12280	-398.36670	1161.63525	2079.68921	-144.28386	515.14984	2494.99390	-369.22684	596.01257	2183.67676				-374.19235	168.20450	2273.04663	
427	4.260	-14.75628	233.51016	2390.92969	-161.05032	1679.84583	2322.83081							-111.88653	1505.12329	2346.04761				-279.28516	1386.51660	2289.33789				-83.21520	1158.15454	2451.85889				-126.49091	920.15210	2486.54053	-467.96152	930.66730	2160.81104	-256.04099	1093.81116	2366.43408	-345.39960	1082.06287	2264.47339	-402.80661	1162.96448	2085.53320	-158.81473	520.74774	2507.73755	-365.45245	594.43951	2181.87939				-375.65704	166.78206	2273.07495	
428	4.270	-27.78416	232.53734	2415.00073	-165.60570	1680.57825	2328.18433							-118.09871	1506.32361	2353.55347				-283.34604	1386.96667	2292.47852				-93.34698	1159.01746	2458.17310				-141.05382	922.38861	2489.96289	-471.90475	933.73938	2169.79883	-261.30740	1093.95520	2370.69287	-348.16669	1081.62634	2266.12183	-407.39853	1164.65405	2091.00269	-173.04745	525.78442	2518.92041	-361.25714	592.74579	2179.74487				-375.38086	166.13185	2271.01880	
